<svg width="16" height="16" viewBox="0 0 16 16" fill="none" xmlns="http://www.w3.org/2000/svg">
<g clip-path="url(#clip0_2529_20584)">
<path d="M11.6989 4.75816L9.69709 2.93427C9.50868 2.76286 9.25467 2.66663 8.99056 2.66663H4.34098C3.78417 2.66663 3.33334 3.08313 3.33334 3.59887V12.4026C3.33334 12.9168 3.78417 13.3348 4.34098 13.3348H10.9924C11.5492 13.3348 12 12.9183 12 12.4026V5.42276C12 5.17316 11.8923 4.93408 11.6989 4.75816ZM9.10495 3.35528C9.13692 3.36882 9.16719 3.38536 9.19243 3.40941L11.1942 5.2333C11.2245 5.26037 11.2464 5.29495 11.2615 5.33104H9.10664V3.35528H9.10495ZM11.2783 12.401C11.2783 12.5469 11.1505 12.6657 10.9924 12.6657H4.34098C4.18285 12.6657 4.05501 12.5469 4.05501 12.401V3.59887C4.05501 3.45302 4.18285 3.33423 4.34098 3.33423H8.38497V5.38066C8.38497 5.72198 8.6844 5.99864 9.05281 5.99864H11.2783V12.401Z" fill="#767676"/>
<path d="M7.72387 8.06617C7.9005 7.60757 8.05021 6.93846 7.9762 6.50692C7.93414 6.26183 7.77097 6.05433 7.55228 5.96562C7.37565 5.89495 7.18556 5.90848 7.01735 6.00471C6.82557 6.11447 6.73137 6.3761 6.75156 6.73998C6.77006 7.07228 6.88445 7.46322 7.06613 7.81958C6.9551 8.20601 6.5968 9.04954 6.21999 9.6179C5.42094 9.91261 4.90956 10.2344 4.69087 10.4569C4.5277 10.6223 4.48901 10.8554 4.59667 11.0373C4.69255 11.1997 4.87928 11.2884 5.11815 11.2884C5.15516 11.2884 5.19553 11.2869 5.23422 11.2824C5.87177 11.1922 6.44708 10.505 6.87436 9.81037C7.17884 9.71113 7.50518 9.61189 8.40347 9.45251C8.97206 9.91562 9.58942 10.0464 10.0066 10.0464C10.1832 10.0464 10.3245 10.0224 10.4103 9.9908C10.5466 9.94118 10.6391 9.85548 10.6778 9.7412C10.7266 9.59986 10.6896 9.43296 10.5718 9.27207C10.5685 9.26756 10.2354 8.81948 8.54141 9.04803C8.22853 8.7864 7.96442 8.50372 7.72555 8.06617H7.72387ZM6.08036 10.0179C6.07363 10.0269 5.40917 10.9712 5.03404 10.9922C5.02899 10.9922 5.02563 10.9922 5.02226 10.9922C4.96843 10.9922 4.92301 10.9727 4.88769 10.9321C4.84731 10.887 4.83554 10.8343 4.849 10.7787C4.90114 10.5772 5.30824 10.3141 6.05681 9.99381L6.11569 9.96825L6.08205 10.0179H6.08036ZM7.09136 6.41219C7.1536 6.22424 7.24781 6.20319 7.29995 6.2077C7.3992 6.21522 7.48163 6.32348 7.49172 6.4152C7.51696 6.63473 7.51528 6.955 7.28986 7.50231L7.27136 7.54742L7.25285 7.50231C7.24108 7.47375 6.96688 6.7896 7.09136 6.41219ZM8.04012 9.12923C7.73396 9.18637 7.43453 9.25253 7.14687 9.32771C7.27809 9.07961 7.40593 8.81648 7.52705 8.53981C7.68181 8.74881 7.85003 8.94278 8.04012 9.12923ZM8.74159 9.31568C8.78365 9.30966 9.76437 9.17434 10.0352 9.3653C10.0789 9.39537 10.1025 9.43296 10.1075 9.47656C10.1159 9.56377 10.0907 9.63144 10.0335 9.67805C9.96119 9.73519 9.85353 9.74872 9.76773 9.74872C9.69372 9.74872 9.63652 9.73819 9.63148 9.73819C9.62138 9.73819 9.33036 9.6991 8.73318 9.34876L8.69113 9.3247L8.74159 9.31718V9.31568Z" fill="#767676"/>
</g>
<defs>
<clipPath id="clip0_2529_20584">
<rect width="8.66667" height="10.6667" fill="white" transform="translate(3.33334 2.66663)"/>
</clipPath>
</defs>
</svg>
