<svg width="128" height="128" viewBox="0 0 128 128" fill="none" xmlns="http://www.w3.org/2000/svg"><g clip-path="url(#a)"><rect width="128" height="128" rx="64" fill="#CEE6FF"/><g clip-path="url(#b)"><path d="M34.905 51.981a3 3 0 0 1 3-3h62.192a3 3 0 0 1 3 3v34.824a3 3 0 0 1-3 3H37.905a3 3 0 0 1-3-3V51.981Z" fill="#00369F"/><path fill="#166BCD" d="M34.905 58.899h68.192v11.296H34.905z"/><path d="M25.865 42.284a3 3 0 0 1 3-3h62.192a3 3 0 0 1 3 3V77.11a3 3 0 0 1-3 3H28.865a3 3 0 0 1-3-3V42.284Z" fill="#166BCD"/><path d="M24.865 41.284a3 3 0 0 1 3-3h62.192a3 3 0 0 1 3 3V76.11a3 3 0 0 1-3 3H27.865a3 3 0 0 1-3-3V41.284Z" fill="#328CE1"/><rect x="32" y="51.284" width="9" height="7" rx="2" fill="#7EB3F1"/><rect x="72.558" y="63.884" width="14.642" height="9.622" rx="2" fill="#fff"/><rect x="31.559" y="69.744" width="27.193" height="2.51" rx="1.255" fill="#fff"/><rect x="31.559" y="65.048" width="19.244" height="2.51" rx="1.255" fill="#fff"/></g></g><defs><clipPath id="a"><rect width="128" height="128" rx="64" fill="#fff"/></clipPath><clipPath id="b"><path fill="#fff" d="M0 0h128v128H0z"/></clipPath></defs></svg>