<svg width="164" height="58" viewBox="0 0 164 58" fill="none" xmlns="http://www.w3.org/2000/svg">
<path fill-rule="evenodd" clip-rule="evenodd" d="M66.7509 48.3957H67.0532L69.119 57.1877C68.9897 57.1877 68.8803 57.1812 68.7738 57.1748C68.6728 57.1687 68.5744 57.1628 68.464 57.1628C68.331 57.1628 68.205 57.1697 68.0861 57.1763C67.9797 57.1822 67.8789 57.1877 67.7838 57.1877C67.6326 56.1551 67.4059 54.9456 67.1288 53.7868H63.9294C63.8319 53.9518 63.7339 54.1168 63.6357 54.282L63.6357 54.282C63.0742 55.227 62.508 56.1799 62.0148 57.1877C61.9233 57.1877 61.8453 57.181 61.7704 57.1745L61.7703 57.1745L61.7703 57.1745C61.7009 57.1686 61.634 57.1628 61.5614 57.1628C61.4658 57.1628 61.3776 57.1701 61.2969 57.1768L61.2968 57.1768L61.2967 57.1768C61.2285 57.1825 61.1656 57.1877 61.1079 57.1877L66.7509 48.3957ZM64.282 53.258H67.0531L66.2722 50.0332L64.282 53.258ZM40.7276 57.1374H38.939L40.5764 48.5469H43.0453C44.8843 48.5469 45.766 49.0004 45.5141 50.2852C45.2874 51.4946 44.2545 52.2504 43.0956 52.5273C44.0529 52.5776 45.2874 53.0311 45.0102 54.4922C44.8591 55.3994 44.3049 56.1297 43.4735 56.6336C42.6422 57.1628 41.5841 57.1628 40.7276 57.1374ZM42.5414 49.0508H41.6093L40.9543 52.3764L41.1094 52.3766C41.782 52.3783 42.4188 52.3798 43.1208 52.099C43.7758 51.8219 44.2545 51.2677 44.3804 50.5875C44.6072 49.3783 43.8514 49.0508 42.5414 49.0508ZM41.5841 52.8296H40.8787L40.1482 56.6839H41.3322C42.5666 56.6839 43.5995 55.8778 43.8262 54.7442C44.1033 53.2581 43.1208 52.8296 41.5841 52.8296ZM118.571 48.5721C118.48 48.5721 118.388 48.579 118.3 48.5856C118.219 48.5917 118.14 48.5976 118.067 48.5976C117.979 48.5976 117.897 48.5912 117.816 48.5848C117.734 48.5785 117.652 48.5721 117.564 48.5721L113.86 51.7715C113.715 51.8985 113.505 52.0646 113.304 52.2229L113.303 52.2239C113.226 52.2851 113.15 52.3452 113.079 52.4013C112.928 52.5023 112.752 52.5525 112.752 52.4769L113.507 48.5976C113.403 48.5976 113.306 48.6042 113.212 48.6107C113.124 48.6167 113.039 48.6225 112.953 48.6225C112.849 48.6225 112.752 48.6158 112.658 48.6094C112.57 48.6034 112.484 48.5976 112.399 48.5976L110.736 57.1878C110.825 57.1878 110.919 57.1816 111.014 57.1753C111.108 57.1691 111.203 57.1628 111.291 57.1628C111.376 57.1628 111.461 57.1687 111.549 57.1747C111.643 57.1811 111.741 57.1878 111.845 57.1878L112.702 52.8044C112.702 52.7542 112.853 52.7792 112.903 52.8296L115.019 56.0292C115.271 56.3816 115.473 56.7595 115.674 57.1628C115.787 57.1628 115.907 57.1565 116.027 57.1501C116.146 57.1438 116.266 57.1374 116.38 57.1374C116.475 57.1374 116.576 57.1431 116.682 57.1491C116.801 57.1558 116.927 57.1628 117.06 57.1628V57.1122L116.279 55.8526C115.887 55.2711 115.482 54.6959 115.078 54.1207L115.078 54.1206C114.676 53.5496 114.274 52.9786 113.885 52.4013L115.17 51.318L118.571 48.5721ZM94.7198 48.5859C94.7826 48.5792 94.8491 48.5721 94.9156 48.5721L93.2278 57.1628H92.8499C92.784 57.0473 92.6751 56.8888 92.5511 56.7085C92.4856 56.6131 92.4158 56.5116 92.346 56.4071L88.0886 50.3859H87.9626L86.6526 57.1628C86.5862 57.1628 86.5197 57.1558 86.4569 57.1491C86.4007 57.1431 86.3475 57.1374 86.3 57.1374C86.237 57.1374 86.1803 57.1438 86.1236 57.1501C86.0669 57.1565 86.0102 57.1628 85.9473 57.1628L87.6099 48.5721H88.1138L92.8247 55.0465H92.9506L94.2102 48.5721C94.2732 48.5721 94.33 48.5785 94.3867 48.5848C94.4435 48.5912 94.5002 48.5976 94.5632 48.5976C94.6106 48.5976 94.6637 48.5919 94.7198 48.5859Z" fill="white"/>
<path fill-rule="evenodd" clip-rule="evenodd" d="M55.4902 10.9101C64.9372 6.80375 79.4226 3.30206 95.9234 1.58901C125.675 -1.5348 150.716 2.29438 151.824 10.1039C152.681 15.9736 139.808 22.4228 120.738 26.6047C135.55 22.2968 144.947 16.679 144.116 11.6658C142.831 3.90667 117.614 0.530941 87.7864 4.10821C75.4675 5.59454 64.2822 8.01297 55.4902 10.9101ZM119.906 32.3233C121.04 26.907 119.276 19.8784 108.142 19.8784C98.3923 19.8784 91.4897 25.5214 89.9782 32.4747C88.2651 40.4101 93.102 44.9697 101.743 44.9697C111.341 44.9697 118.47 39.1505 119.906 32.3233ZM107.461 21.9693C113.331 21.9693 114.54 27.1589 113.558 31.6683C112.298 37.4624 108.419 42.8787 102.398 42.8787C96.5281 42.8787 95.2685 38.0418 96.251 33.5073C97.964 25.6474 102.02 21.9693 107.461 21.9693ZM119.289 44.4716C119.116 44.4868 118.944 44.502 118.772 44.5163L122.476 27.5621C122.633 27.5764 122.79 27.5915 122.948 27.6068L122.948 27.6068C123.624 27.6721 124.31 27.7384 125.045 27.7384C125.727 27.7384 126.425 27.6745 127.127 27.6103L127.127 27.6103C127.306 27.5939 127.486 27.5774 127.665 27.5621L127.111 30.1568C129.026 28.5194 131.343 27.2598 133.762 27.2598C138.699 27.2598 139.329 30.0813 138.422 34.2881L136.205 44.5415C136.031 44.5266 135.857 44.5106 135.682 44.4947C134.974 44.4299 134.263 44.3649 133.535 44.3649C132.801 44.3649 132.05 44.4311 131.309 44.4964C131.135 44.5118 130.962 44.5271 130.789 44.5415L132.678 35.8251C133.384 32.5501 133.434 30.182 130.688 30.182C127.262 30.182 126.38 34.2631 125.902 36.48L124.164 44.5163C123.981 44.5007 123.8 44.4839 123.619 44.4673L123.619 44.4673L123.619 44.4672C122.925 44.4033 122.238 44.34 121.518 44.34C120.783 44.34 120.031 44.4062 119.289 44.4716ZM146.181 34.3639C146.66 32.4997 147.743 28.7962 150.59 28.7962C152.933 28.7962 152.379 32.4997 151.95 34.3639H146.181ZM156.989 36.0266C158.5 31.0386 157.014 27.2094 150.892 27.2094C145.224 27.2094 141.169 30.7111 140.11 35.5981C138.876 41.2918 141.42 44.8186 147.92 44.8186C149.834 44.8186 152.076 44.214 153.865 43.2313L155.15 41.2663L154.747 40.9391C153.336 41.8457 151.421 42.5259 149.834 42.5259C145.678 42.5259 144.922 39.6288 145.804 36.0014H156.989V36.0266ZM157.845 23.2038C157.845 21.4908 159.231 20.1304 160.919 20.1304C162.632 20.1304 163.992 21.516 163.992 23.2038C163.992 24.9169 162.607 26.2773 160.919 26.2773C159.231 26.3024 157.845 24.9169 157.845 23.2038ZM158.299 23.2038C158.299 24.665 159.483 25.849 160.944 25.849C162.405 25.849 163.589 24.665 163.589 23.2038C163.589 21.7427 162.405 20.5587 160.944 20.5587C159.483 20.5587 158.299 21.7427 158.299 23.2038ZM160.566 21.7175C160.597 21.7175 160.629 21.7171 160.661 21.7166C160.967 21.7123 161.304 21.7075 161.372 22.0954C161.398 22.1962 161.398 22.2717 161.398 22.3473C161.398 22.8512 161.12 23.1031 160.566 23.0527V21.7175ZM159.76 24.8917C159.886 24.8665 160.012 24.8665 160.163 24.8665C160.242 24.8665 160.314 24.8734 160.383 24.88C160.446 24.886 160.506 24.8917 160.566 24.8917V23.2794H160.592C160.65 23.3727 160.714 23.4715 160.773 23.5631C160.841 23.6693 160.904 23.766 160.944 23.8337L161.574 24.8917C161.75 24.8665 161.902 24.8665 162.052 24.8665C162.141 24.8665 162.223 24.8728 162.305 24.8791C162.386 24.8854 162.468 24.8917 162.556 24.8917L162.33 24.5894C162.264 24.493 162.198 24.3975 162.132 24.3027L162.132 24.3026C161.872 23.9269 161.619 23.5608 161.398 23.1787C161.902 23.0779 162.229 22.7756 162.229 22.2969C162.229 21.9443 162.078 21.7427 161.75 21.5664C161.524 21.4656 161.12 21.4656 160.894 21.4656H159.76V24.8917Z" fill="white"/>
<path fill-rule="evenodd" clip-rule="evenodd" d="M70.2325 20.3793C70.3988 20.3632 70.5651 20.3471 70.7313 20.332L65.4914 44.5163C65.227 44.4992 64.9656 44.4764 64.7051 44.4536L64.705 44.4536L64.7049 44.4536L64.7048 44.4536C64.1957 44.4091 63.6902 44.3649 63.1737 44.3649C62.3676 44.3649 61.5362 44.4407 60.7553 44.5163L61.3599 41.7197C60.2011 43.5842 58.1605 44.7934 55.8177 44.7934C50.5525 44.7934 49.6708 40.9138 50.5525 36.8073C51.4342 32.7766 54.4573 28.7965 59.143 28.7965C61.2339 28.7965 62.7958 29.4263 63.476 31.089L65.8189 20.332C65.9801 20.3471 66.1413 20.3632 66.3026 20.3793C66.9475 20.4438 67.5924 20.5083 68.2373 20.5083C68.9024 20.5083 69.5675 20.4438 70.2325 20.3793ZM62.4432 36.5304C62.8462 34.6914 63.3753 30.837 60.5286 30.837C57.4803 30.837 56.2459 34.893 55.7925 36.8831C55.3894 38.7221 54.7848 42.7025 57.6567 42.7025C60.7049 42.7025 62.0149 38.5458 62.4432 36.5304ZM12.6638 43.0048C14.8555 43.0048 17.6519 41.9717 19.5413 40.6115L19.9947 40.8131L18.6091 43.559C16.2663 44.5415 13.6715 44.9194 11.2783 44.9194C3.67029 44.9194 -1.16658 40.7375 0.244173 34.2128C2.058 25.8994 9.26291 22.1206 17.0221 22.1206C19.3649 22.1206 22.0856 22.6748 23.9247 23.6825C23.586 24.3445 23.2849 25.0065 22.9812 25.6743L22.9812 25.6743C22.788 26.0992 22.5937 26.5264 22.388 26.9575H21.8841C20.952 25.2444 18.9366 24.0352 16.619 24.0352C10.6989 24.0352 7.22236 29.0988 6.21468 33.7593C5.03065 39.1756 7.19717 43.0048 12.6638 43.0048ZM23.4711 44.3398C22.6397 44.3398 21.8084 44.4154 20.9771 44.491L24.3276 29.0986C24.5949 29.1154 24.8623 29.1377 25.1297 29.16C25.6685 29.2049 26.2072 29.2498 26.746 29.2498C27.3016 29.2498 27.8573 29.2049 28.4129 29.16C28.6886 29.1377 28.9643 29.1154 29.24 29.0986L28.3835 33.0286C29.6179 30.7112 31.6081 28.7963 35.0846 28.7963C34.5807 30.3079 34.1777 31.769 33.9761 33.1294L33.5982 33.3813C33.2204 33.079 32.4646 32.953 31.8852 32.953C30.3233 32.953 28.8873 33.6838 28.1568 35.044C27.7495 35.7974 27.4904 37.0776 27.2863 38.0861L27.2863 38.0861C27.2379 38.3253 27.1926 38.5492 27.1491 38.7472L25.8895 44.491C25.6194 44.4742 25.3494 44.4517 25.0793 44.4292L25.0793 44.4291C24.5432 44.3845 24.0071 44.3398 23.4711 44.3398ZM39.2412 35.2708C39.6695 33.5829 40.652 30.2072 43.2468 30.2072C45.3881 30.2072 44.8591 33.5829 44.5064 35.2708H39.2412ZM49.0661 36.8075C50.4517 32.2729 49.0913 28.7964 43.5239 28.7964C38.3595 28.7964 34.6815 31.9706 33.7242 36.4296C32.5905 41.6192 34.9334 44.7934 40.8283 44.7934C42.5666 44.7934 44.6071 44.2643 46.2194 43.3574L47.3783 41.5688L47.0004 41.2917C45.7156 42.123 44.0025 42.7276 42.5414 42.7276C38.7626 42.7276 38.0824 40.0825 38.8885 36.8075H49.0661ZM68.2119 44.491C69.0433 44.4154 69.8746 44.3398 70.7059 44.3398C71.242 44.3398 71.7781 44.3845 72.3141 44.4291L72.3142 44.4292C72.5843 44.4517 72.8543 44.4742 73.1244 44.491L76.4749 29.0734C76.1978 29.0902 75.9207 29.1126 75.6435 29.135C75.0893 29.1798 74.5351 29.2246 73.9809 29.2246C73.4435 29.2246 72.906 29.1798 72.3686 29.135C72.0999 29.1126 71.8312 29.0902 71.5625 29.0734L68.2119 44.491ZM72.4946 23.2541C72.1923 24.5893 73.1999 25.7733 74.7115 25.7733C76.2482 25.7733 77.8101 24.6147 78.1124 23.2541C78.4147 21.8937 77.3314 20.7349 75.8199 20.7349C74.2832 20.7349 72.7717 21.9189 72.4946 23.2541ZM88.7184 31.1141H85.6953L83.7805 40.158C83.3021 42.3497 83.1761 43.5338 86.5015 42.8032L86.2244 44.0376C84.8136 44.4911 83.4784 44.7682 82.37 44.7682C78.6668 44.7682 78.3141 42.5765 78.9691 39.629L80.8081 31.1141H78.3896C78.6416 30.3835 78.7675 29.8041 78.8179 29.0735H81.2363L82.0173 25.4711C83.7555 24.9169 85.4938 24.2367 87.358 23.5061L86.1488 29.0735H89.1718C88.8947 29.8041 88.7688 30.3835 88.7184 31.1141Z" fill="white"/>
</svg>
