<svg width="24" height="24" viewBox="0 0 24 24" fill="none" xmlns="http://www.w3.org/2000/svg">
<path fill-rule="evenodd" clip-rule="evenodd" d="M20.1847 4.82048C20.5765 4.43122 20.5765 3.80009 20.1847 3.41083C19.7929 3.02156 19.1577 3.02156 18.7659 3.41083L11.5331 10.5972L4.19086 3.30205C3.79909 2.91278 3.16389 2.91278 2.77211 3.30205C2.38033 3.69132 2.38033 4.32244 2.77211 4.7117L10.1144 12.0069L2.77211 19.302C2.38033 19.6913 2.38033 20.3224 2.77211 20.7117C3.16389 21.101 3.79909 21.101 4.19087 20.7117L11.5331 13.4165L18.7659 20.6029C19.1577 20.9922 19.7929 20.9922 20.1847 20.6029C20.5765 20.2136 20.5765 19.5825 20.1847 19.1933L12.9519 12.0069L20.1847 4.82048Z" fill="#767676"/>
</svg>
