<svg width="16" height="16" viewBox="0 0 16 16" fill="none" xmlns="http://www.w3.org/2000/svg">
<path fill-rule="evenodd" clip-rule="evenodd" d="M7.85505 0.666627C10.146 0.665096 12.0194 2.36485 12.1031 4.48325L12.1061 4.62832L12.1078 6.63439H12.5394C13.3098 6.63439 13.9429 7.19054 13.9965 7.89637L14.0001 7.9935V13.9677C14.0017 14.6863 13.4039 15.2752 12.647 15.325L12.5429 15.3285L3.46076 15.3333C2.69031 15.3333 2.05727 14.7757 2.00368 14.0698L2 13.9726V8.00002C1.9984 7.28143 2.59621 6.69255 3.35311 6.64127L3.45727 6.63765L3.90948 6.63439L3.90598 4.62832C3.90423 2.44299 5.51201 0.66832 7.85505 0.666627ZM7.99999 9.83336C7.87568 9.83332 7.75661 9.88209 7.66975 9.96862C7.60026 10.0378 7.55608 10.1265 7.54271 10.2212L7.53854 10.293V11.2017C7.53559 11.3231 7.58273 11.4406 7.66943 11.528C7.75613 11.6153 7.87518 11.6653 7.99999 11.6667C8.2372 11.6613 8.42987 11.4867 8.45796 11.2636L8.46145 11.2017V10.293C8.46291 10.1725 8.41512 10.0564 8.32858 9.9702C8.24204 9.88399 8.12384 9.83477 7.99999 9.83336ZM5.43045 4.87898C5.47593 3.4272 6.27449 2.00002 7.9973 2.00002C9.77231 2.00002 10.5679 3.51324 10.5679 5.00746L10.5712 6.63765L5.43173 6.64118L5.42838 5.01099L5.43045 4.87898Z" fill="white" fill-opacity="0.5"/>
</svg>
