<svg width="96" height="96" viewBox="0 0 96 96" fill="none" xmlns="http://www.w3.org/2000/svg">
<circle cx="48" cy="48" r="48" fill="#CEE6FF"/>
<path d="M63.0067 35.736V29.3039C63.0067 25.1949 61.5331 21.6667 58.5852 18.7188C55.6374 15.7709 52.1096 14.2969 48 14.2969C43.8904 14.2969 40.3619 15.7709 37.4144 18.7187C34.4664 21.6667 32.9929 25.1948 32.9929 29.3039V35.736H63.0067ZM56.5753 35.736H39.4246V29.3039C39.4246 26.9368 40.2622 24.9156 41.937 23.241C43.6121 21.5662 45.633 20.7289 48.0003 20.7289C50.3679 20.7289 52.3883 21.566 54.0635 23.241C55.7379 24.9155 56.5753 26.9368 56.5753 29.3039V35.736Z" fill="#00369F"/>
<path d="M63.0067 35.736V29.3039C63.0067 25.1949 61.5331 21.6667 58.5852 18.7188C55.6374 15.7709 52.1096 14.2969 48 14.2969C43.8904 14.2969 40.3619 15.7709 37.4144 18.7187C34.4664 21.6667 32.9929 25.1948 32.9929 29.3039V35.736H63.0067ZM59.8503 35.736H36.1997V29.3039C36.1997 25.4646 37.9965 22.6435 39.6714 20.9688C41.3465 19.294 44.0109 17.2737 48.0003 17.2737C51.9897 17.2737 54.9747 19.2939 56.6499 20.9688C58.3243 22.6433 59.8503 25.7359 59.8503 29.3039V35.736Z" fill="#166BCD"/>
<path d="M58.5852 18.7188C61.1492 21.2828 62.5978 24.2857 62.9317 27.7279C63.0158 28.5955 62.3001 29.3039 61.4285 29.3039C60.5569 29.3039 59.8602 28.5944 59.7515 27.7296C59.388 24.8378 58.0725 22.3915 56.6499 20.9688C54.9747 19.2939 51.9897 17.2737 48.0003 17.2737C44.0109 17.2737 41.3465 19.294 39.6714 20.9688C38.2384 22.4016 36.7161 24.6737 36.3064 27.7047C36.1877 28.5822 35.4819 29.3039 34.5963 29.3039C33.7108 29.3039 32.9835 28.584 33.0704 27.7028C33.4088 24.271 34.8566 21.2765 37.4144 18.7187C40.3619 15.7709 43.8904 14.2969 48 14.2969C52.1096 14.2969 55.6374 15.7709 58.5852 18.7188Z" fill="#328CE1"/>
<path opacity="0.8" d="M48 14.7508C51.2936 14.7508 54.1758 15.736 56.6476 17.7064C57.2039 18.1499 57.2308 18.9683 56.752 19.4945C56.2602 20.0349 55.4239 20.061 54.8389 19.6232C53.2489 18.4331 50.9209 17.3063 48.0003 17.3063C45.089 17.3063 42.9545 18.4259 41.4388 19.6118C40.8521 20.0708 40.0118 20.0794 39.4696 19.5685C38.8812 19.0141 38.8768 18.0722 39.5162 17.5774C41.9512 15.693 44.7791 14.7508 48 14.7508Z" fill="white"/>
<path opacity="0.8" d="M48 14.7508C51.2936 14.7508 54.1758 15.736 56.6476 17.7064C57.2039 18.1499 57.2308 18.9683 56.752 19.4945C56.2602 20.0349 55.4239 20.061 54.8389 19.6232C53.2489 18.4331 50.9209 17.3063 48.0003 17.3063C45.089 17.3063 42.9545 18.4259 41.4388 19.6118C40.8521 20.0708 40.0118 20.0794 39.4696 19.5685C38.8812 19.0141 38.8768 18.0722 39.5162 17.5774C41.9512 15.693 44.7791 14.7508 48 14.7508Z" fill="white"/>
<path d="M48 28.4958L26.1773 34.5221C24.8766 34.8813 23.9758 36.0646 23.9758 37.4139V46.7865C23.9758 61.7601 33.1691 75.2457 47.3594 81.1358L48 81.3839L48.6406 81.1358C62.8309 75.2457 72.0241 61.7601 72.0241 46.7865V37.4139C72.0241 36.0646 71.1233 34.8813 69.8227 34.5221L48 28.4958Z" fill="#328CE1"/>
<path d="M69.8227 34.5221C71.1233 34.8813 72.0241 36.0646 72.0241 37.4139V46.7865C72.0241 61.7601 62.8309 75.2457 48.6406 81.1358L48 81.3839V28.4958L69.8227 34.5221Z" fill="#166BCD"/>
<path d="M47.9999 32.1446L29.3621 37.2937C28.4951 37.5332 27.8947 38.322 27.8947 39.2215V45.6593C27.8947 58.7492 35.279 70.7073 47.1227 76.934L48.0001 77.3939L48.8774 76.934C60.7213 70.7073 68.1055 58.7493 68.1055 45.6593V39.2215C68.1055 38.322 67.505 37.5332 66.6381 37.2937L47.9999 32.1446Z" fill="#7EB3F1"/>
<path d="M66.6379 37.2937C67.5049 37.5332 68.1053 38.322 68.1053 39.2215V45.6593C68.1053 58.7492 60.721 70.7073 48.8772 76.934L48 77.3938V32.1446L66.6379 37.2937Z" fill="#328CE1"/>
<g filter="url(#filter0_i_1251_111625)">
<path fill-rule="evenodd" clip-rule="evenodd" d="M50.9432 55.3677C52.7032 54.3497 53.8874 52.4469 53.8874 50.2676C53.8874 47.0159 51.2515 44.38 47.9999 44.38C44.7482 44.38 42.1123 47.0159 42.1123 50.2676C42.1123 52.4466 43.2961 54.3492 45.0557 55.3672V59.973C45.0557 61.0776 45.9511 61.973 47.0557 61.973H48.9432C50.0478 61.973 50.9432 61.0776 50.9432 59.973V55.3677Z" fill="#00369F"/>
</g>
<defs>
<filter id="filter0_i_1251_111625" x="42.1123" y="44.38" width="11.7751" height="19.593" filterUnits="userSpaceOnUse" color-interpolation-filters="sRGB">
<feFlood flood-opacity="0" result="BackgroundImageFix"/>
<feBlend mode="normal" in="SourceGraphic" in2="BackgroundImageFix" result="shape"/>
<feColorMatrix in="SourceAlpha" type="matrix" values="0 0 0 0 0 0 0 0 0 0 0 0 0 0 0 0 0 0 127 0" result="hardAlpha"/>
<feOffset dy="2"/>
<feGaussianBlur stdDeviation="1"/>
<feComposite in2="hardAlpha" operator="arithmetic" k2="-1" k3="1"/>
<feColorMatrix type="matrix" values="0 0 0 0 0 0 0 0 0 0 0 0 0 0 0 0 0 0 0.25 0"/>
<feBlend mode="normal" in2="shape" result="effect1_innerShadow_1251_111625"/>
</filter>
</defs>
</svg>
