<svg width="32" height="32" viewBox="0 0 32 32" fill="none" xmlns="http://www.w3.org/2000/svg">
<circle cx="16" cy="16" r="16" fill="#0A5EC0"/>
<path d="M21.3218 23H10.8423V20.7954L14.6055 16.9912C15.7197 15.8496 16.4478 15.0601 16.7896 14.6226C17.1313 14.1782 17.3774 13.7681 17.5278 13.3921C17.6782 13.0161 17.7534 12.6265 17.7534 12.2231C17.7534 11.6216 17.5859 11.1738 17.251 10.8799C16.9229 10.5859 16.4819 10.439 15.9282 10.439C15.3472 10.439 14.7832 10.5723 14.2363 10.8389C13.6895 11.1055 13.1187 11.4849 12.5239 11.9771L10.8013 9.93652C11.5396 9.30762 12.1514 8.86328 12.6367 8.60352C13.1221 8.34375 13.6519 8.14551 14.2261 8.00879C14.8003 7.86523 15.4429 7.79346 16.1538 7.79346C17.0903 7.79346 17.9175 7.96436 18.6353 8.30615C19.353 8.64795 19.9102 9.12646 20.3066 9.7417C20.7031 10.3569 20.9014 11.061 20.9014 11.854C20.9014 12.5444 20.7783 13.1938 20.5322 13.8022C20.293 14.4038 19.917 15.0225 19.4043 15.6582C18.8984 16.2939 18.0029 17.1997 16.7178 18.3755L14.79 20.1904V20.334H21.3218V23Z" fill="white"/>
</svg>
