<svg width="32" height="32" viewBox="0 0 32 32" fill="none" xmlns="http://www.w3.org/2000/svg">
<circle cx="16" cy="16" r="16" fill="#0A5EC0"/>
<path d="M21 19.8912H19.0835V23H15.7949V19.8912H9V17.6854L15.98 8H19.0835V17.4289H21V19.8912ZM15.7949 17.4289V14.8844C15.7949 14.645 15.7985 14.3611 15.8058 14.0328C15.8203 13.7045 15.8348 13.3762 15.8494 13.0479C15.8639 12.7196 15.8784 12.4289 15.8929 12.1758C15.9147 11.9159 15.9292 11.7346 15.9365 11.632H15.8494C15.7114 11.9124 15.5662 12.186 15.4138 12.4528C15.2613 12.7127 15.0835 12.9863 14.8802 13.2736L11.9619 17.4289H15.7949Z" fill="white"/>
</svg>
