<svg width="32" height="32" viewBox="0 0 32 32" fill="none" xmlns="http://www.w3.org/2000/svg">
<circle cx="16" cy="16" r="16" fill="#0A5EC0"/>
<path d="M20.7373 11.3618C20.7373 12.2983 20.4536 13.0947 19.8862 13.751C19.3188 14.4072 18.5225 14.8584 17.4971 15.1045V15.166C18.707 15.3164 19.623 15.6855 20.2451 16.2734C20.8672 16.8545 21.1782 17.6406 21.1782 18.6318C21.1782 20.0742 20.6553 21.1987 19.6094 22.0054C18.5635 22.8052 17.0698 23.2051 15.1284 23.2051C13.5015 23.2051 12.0591 22.9351 10.8013 22.395V19.6982C11.3823 19.9922 12.0215 20.2314 12.7188 20.416C13.416 20.6006 14.1064 20.6929 14.79 20.6929C15.8359 20.6929 16.6084 20.5151 17.1074 20.1597C17.6064 19.8042 17.856 19.2334 17.856 18.4473C17.856 17.7432 17.5688 17.2441 16.9946 16.9502C16.4204 16.6562 15.5044 16.5093 14.2466 16.5093H13.1084V14.0791H14.2671C15.4292 14.0791 16.2769 13.9287 16.8101 13.6279C17.3501 13.3203 17.6201 12.7974 17.6201 12.0591C17.6201 10.9243 16.9092 10.3569 15.4873 10.3569C14.9951 10.3569 14.4927 10.439 13.98 10.603C13.4741 10.7671 12.9102 11.0508 12.2881 11.4541L10.8218 9.27002C12.189 8.28564 13.8193 7.79346 15.7129 7.79346C17.2646 7.79346 18.4883 8.10791 19.3838 8.73682C20.2861 9.36572 20.7373 10.2407 20.7373 11.3618Z" fill="white"/>
</svg>
