<svg width="19" height="24" viewBox="0 0 19 24" fill="none" xmlns="http://www.w3.org/2000/svg">
<g id="PDF Icon" clip-path="url(#clip0_1115_99057)">
<path id="Vector" d="M18.3399 4.70595L13.9513 0.602199C13.5382 0.216521 12.9814 0 12.4024 0H2.20904C0.988354 0 0 0.93713 0 2.09755V21.9058C0 23.0629 0.988354 24.0034 2.20904 24.0034H16.791C18.0116 24.0034 19 23.0663 19 21.9058V6.2013C19 5.6397 18.764 5.10178 18.3399 4.70595ZM12.6531 1.54948C12.7232 1.57993 12.7896 1.61714 12.8449 1.67127L17.2335 5.77502C17.2999 5.83592 17.3478 5.91373 17.381 5.99493H12.6568V1.54948H12.6531ZM17.4179 21.9025C17.4179 22.2306 17.1376 22.4979 16.791 22.4979H2.20904C1.86238 22.4979 1.5821 22.2306 1.5821 21.9025V2.09755C1.5821 1.76938 1.86238 1.50211 2.20904 1.50211H11.0747V6.10657C11.0747 6.87454 11.7312 7.49704 12.5388 7.49704H17.4179V21.9025Z" fill="#0A5EC0"/>
<path id="Vector_2" d="M9.62521 12.1489C10.0124 11.117 10.3407 9.6115 10.1784 8.64054C10.0862 8.08909 9.72847 7.62221 9.24905 7.42261C8.86182 7.2636 8.44509 7.29405 8.0763 7.51057C7.65588 7.75754 7.44936 8.3462 7.49361 9.16492C7.53418 9.9126 7.78496 10.7922 8.18325 11.594C7.93985 12.4635 7.15433 14.3614 6.32824 15.6403C4.57649 16.3034 3.45538 17.0273 2.97595 17.528C2.61823 17.9002 2.5334 18.4246 2.76943 18.8339C2.97964 19.1993 3.38899 19.3989 3.91267 19.3989C3.99381 19.3989 4.08232 19.3955 4.16714 19.3854C5.56485 19.1824 6.82611 17.6363 7.76283 16.0733C8.43034 15.85 9.14579 15.6267 11.1151 15.2681C12.3616 16.3101 13.7151 16.6045 14.6297 16.6045C15.0169 16.6045 15.3267 16.5503 15.5148 16.4793C15.8135 16.3676 16.0163 16.1748 16.1011 15.9177C16.2081 15.5997 16.127 15.2241 15.8688 14.8621C15.8614 14.852 15.1312 13.8438 11.4175 14.358C10.7316 13.7694 10.1526 13.1333 9.6289 12.1489H9.62521ZM6.02215 16.5402C6.00739 16.5605 4.55068 18.6851 3.72828 18.7324C3.71722 18.7324 3.70984 18.7324 3.70246 18.7324C3.58445 18.7324 3.48488 18.6885 3.40743 18.5971C3.31892 18.4956 3.29311 18.3772 3.32261 18.252C3.43694 17.7987 4.32941 17.2066 5.97052 16.486L6.09959 16.4285L6.02583 16.5402H6.02215ZM8.23857 8.4274C8.37502 8.00451 8.58154 7.95714 8.69587 7.96729C8.91345 7.98421 9.09416 8.22779 9.11628 8.43417C9.1716 8.9281 9.16792 9.64871 8.67374 10.8802L8.63317 10.9817L8.5926 10.8802C8.56679 10.8159 7.96566 9.27657 8.23857 8.4274ZM10.3185 14.5407C9.64734 14.6693 8.9909 14.8182 8.36027 14.9873C8.64792 14.4291 8.9282 13.837 9.19373 13.2145C9.53302 13.6848 9.9018 14.1212 10.3185 14.5407ZM11.8564 14.9602C11.9486 14.9467 14.0986 14.6422 14.6924 15.0719C14.7883 15.1396 14.8399 15.2241 14.851 15.3222C14.8694 15.5185 14.8141 15.6707 14.6887 15.7756C14.5301 15.9041 14.2941 15.9346 14.106 15.9346C13.9437 15.9346 13.8183 15.9109 13.8073 15.9109C13.7852 15.9109 13.1471 15.8229 11.8379 15.0347L11.7457 14.9805L11.8564 14.9636V14.9602Z" fill="#0A5EC0"/>
</g>
<defs>
<clipPath id="clip0_1115_99057">
<rect width="19" height="24" fill="white"/>
</clipPath>
</defs>
</svg>
