<svg width="24" height="24" viewBox="0 0 24 24" fill="none" xmlns="http://www.w3.org/2000/svg">
<path fill-rule="evenodd" clip-rule="evenodd" d="M11.9999 19.3333C16.0499 19.3333 19.3332 16.0501 19.3332 12C19.3332 7.94989 16.0499 4.66665 11.9999 4.66665C7.94977 4.66665 4.66652 7.94989 4.66652 12C4.66652 16.0501 7.94977 19.3333 11.9999 19.3333ZM21.3332 12C21.3332 17.1546 17.1545 21.3333 11.9999 21.3333C6.8452 21.3333 2.66652 17.1546 2.66652 12C2.66652 6.84532 6.8452 2.66665 11.9999 2.66665C17.1545 2.66665 21.3332 6.84532 21.3332 12Z" fill="#424242"/>
<path fill-rule="evenodd" clip-rule="evenodd" d="M13 15.7054C13 16.2577 12.5523 16.7054 12 16.7054L11.9917 16.7054C11.4394 16.7054 10.9917 16.2577 10.9917 15.7054C10.9917 15.1531 11.4394 14.7054 11.9917 14.7054L12 14.7054C12.5523 14.7054 13 15.1531 13 15.7054ZM12 13.7623C11.4477 13.7623 11 13.3145 11 12.7623L11 8.36684C11 7.81456 11.4477 7.36684 12 7.36684C12.5523 7.36684 13 7.81456 13 8.36684L13 12.7623C13 13.3145 12.5523 13.7623 12 13.7623Z" fill="#424242"/>
</svg>
